<svg height="281" width="292" xmlns="http://www.w3.org/2000/svg"> 
<path d="M 30 189 L30 190 L30 191 L30 192 L30 193 L30 194 L30 195 L30 196 L30 197 L30 198 L29 199 L28 200 L27 201 L26 201 L25 201 L24 202 L23 202 L22 202 L21 202 L20 202 L19 202 L18 202 L17 202 L16 202 L15 202 L14 202 L13 202 L12 202 L11 203 L10 203 L9 203 L8 203 L7 203 L6 203 L5 203 L4 203 L3 203 L2 204 L1 204 L0 204 L0 205 L0 206 L1 206 L2 206 L3 206 L4 206 L5 206 L6 206 L7 205 L8 205 L9 205 L10 205 L11 205 L12 205 L13 205 L14 205 L15 205 L16 205 L17 205 L18 205 L19 204 L20 204 L21 204 L22 204 L23 204 L24 204 L25 204 L26 204 L27 204 L28 203 L29 203 L30 203 L31 203 L32 203 L33 204 L34 205 L35 205 L36 205 L37 205 L38 204 L38 203 L37 202 L36 201 L36 200 L35 199 L34 198 L33 197 L33 196 L32 195 L32 194 L32 193 L32 192 L32 191 L32 190 L32 189 L31 189 Z" fill="#cccccc" stroke="black" stroke-width="1" />
<path d="M 244 0 L244 1 L244 2 L245 3 L245 4 L245 5 L246 6 L246 7 L247 8 L247 9 L248 10 L248 11 L249 12 L249 13 L249 14 L250 15 L250 16 L251 17 L252 18 L253 19 L254 20 L254 21 L255 22 L256 23 L257 24 L258 24 L259 23 L260 23 L261 22 L261 21 L262 20 L263 19 L263 18 L264 17 L265 16 L266 15 L267 14 L268 13 L268 12 L269 11 L270 10 L270 9 L271 8 L271 7 L272 6 L272 5 L273 4 L273 3 L273 2 L273 1 L273 0 L272 0 L271 0 L270 0 L269 0 L268 0 L267 0 L266 0 L265 0 L264 0 L263 0 L262 0 L261 0 L260 0 L259 0 L258 0 L257 0 L256 0 L255 0 L254 0 L253 0 L252 0 L251 0 L250 0 L249 0 L248 0 L247 0 L246 0 L245 0 Z" fill="#cccccc" stroke="black" stroke-width="1" />
<path d="M 0 0 L0 1 L0 2 L0 3 L0 4 L0 5 L0 6 L0 7 L0 8 L0 9 L0 10 L0 11 L0 12 L0 13 L0 14 L0 15 L0 16 L0 17 L0 18 L0 19 L0 20 L0 21 L0 22 L0 23 L0 24 L0 25 L0 26 L0 27 L0 28 L0 29 L0 30 L0 31 L0 32 L0 33 L0 34 L0 35 L0 36 L0 37 L0 38 L0 39 L0 40 L0 41 L0 42 L0 43 L0 44 L0 45 L0 46 L0 47 L0 48 L0 49 L0 50 L0 51 L0 52 L0 53 L0 54 L0 55 L0 56 L0 57 L0 58 L0 59 L0 60 L0 61 L0 62 L0 63 L0 64 L0 65 L0 66 L0 67 L0 68 L0 69 L0 70 L0 71 L0 72 L0 73 L0 74 L0 75 L0 76 L0 77 L0 78 L0 79 L0 80 L0 81 L0 82 L0 83 L0 84 L0 85 L0 86 L0 87 L0 88 L0 89 L0 90 L0 91 L0 92 L0 93 L0 94 L0 95 L0 96 L0 97 L0 98 L0 99 L0 100 L0 101 L0 102 L0 103 L0 104 L0 105 L0 106 L0 107 L0 108 L0 109 L0 110 L0 111 L0 112 L0 113 L0 114 L0 115 L0 116 L0 117 L0 118 L0 119 L0 120 L0 121 L0 122 L0 123 L0 124 L0 125 L0 126 L0 127 L0 128 L0 129 L0 130 L0 131 L0 132 L0 133 L0 134 L0 135 L0 136 L0 137 L0 138 L0 139 L0 140 L0 141 L0 142 L0 143 L0 144 L0 145 L0 146 L0 147 L0 148 L0 149 L0 150 L0 151 L0 152 L0 153 L0 154 L0 155 L0 156 L0 157 L0 158 L0 159 L0 160 L0 161 L0 162 L0 163 L0 164 L0 165 L0 166 L0 167 L0 168 L0 169 L0 170 L0 171 L0 172 L0 173 L0 174 L0 175 L0 176 L0 177 L0 178 L0 179 L0 180 L0 181 L0 182 L0 183 L0 184 L0 185 L0 186 L0 187 L0 188 L0 189 L0 190 L0 191 L0 192 L0 193 L0 194 L0 195 L0 196 L0 197 L0 198 L0 199 L0 200 L0 201 L0 202 L1 201 L2 200 L3 200 L4 200 L5 200 L6 200 L7 200 L8 200 L9 200 L10 200 L11 200 L12 199 L13 199 L14 199 L15 199 L16 199 L17 199 L18 199 L19 199 L20 199 L21 199 L22 199 L23 199 L24 198 L25 198 L26 198 L27 198 L27 197 L27 196 L27 195 L27 194 L27 193 L27 192 L27 191 L27 190 L27 189 L28 188 L29 187 L30 187 L31 187 L32 187 L33 187 L34 188 L35 189 L35 190 L35 191 L35 192 L35 193 L35 194 L35 195 L36 196 L37 197 L38 198 L38 199 L39 200 L40 201 L40 202 L41 203 L41 204 L40 205 L40 206 L40 207 L39 208 L38 208 L37 208 L36 208 L35 208 L34 208 L33 208 L32 207 L31 206 L30 205 L29 205 L28 206 L27 207 L26 207 L25 207 L24 207 L23 207 L22 207 L21 207 L20 207 L19 208 L18 208 L17 208 L16 208 L15 208 L14 208 L13 208 L12 208 L11 208 L10 208 L9 208 L8 208 L7 208 L6 209 L5 209 L4 209 L3 209 L2 209 L1 209 L0 209 L0 210 L0 211 L0 212 L0 213 L0 214 L0 215 L0 216 L0 217 L0 218 L0 219 L0 220 L0 221 L0 222 L0 223 L0 224 L0 225 L0 226 L0 227 L0 228 L0 229 L0 230 L0 231 L0 232 L0 233 L0 234 L0 235 L0 236 L0 237 L0 238 L0 239 L0 240 L0 241 L0 242 L0 243 L0 244 L0 245 L0 246 L0 247 L0 248 L0 249 L0 250 L0 251 L0 252 L0 253 L0 254 L0 255 L0 256 L0 257 L0 258 L0 259 L0 260 L0 261 L0 262 L0 263 L0 264 L0 265 L0 266 L0 267 L0 268 L0 269 L0 270 L0 271 L0 272 L0 273 L0 274 L0 275 L0 276 L0 277 L0 278 L0 279 L0 280 L1 280 L2 280 L3 280 L4 280 L5 280 L6 280 L7 280 L8 280 L9 280 L10 280 L11 280 L12 280 L13 280 L14 280 L15 280 L16 280 L17 280 L18 280 L19 280 L20 280 L21 280 L22 280 L23 280 L24 280 L25 280 L26 280 L27 280 L28 280 L29 280 L30 280 L31 280 L32 280 L33 280 L34 280 L35 280 L36 280 L37 280 L38 280 L39 280 L40 280 L41 280 L42 280 L43 280 L44 280 L45 280 L46 280 L47 280 L48 280 L49 280 L50 280 L51 280 L52 280 L53 280 L54 280 L55 280 L56 280 L57 280 L58 280 L59 280 L60 280 L61 280 L62 280 L63 280 L64 280 L65 280 L66 280 L67 280 L68 280 L69 280 L70 280 L71 280 L72 280 L73 280 L74 280 L75 280 L76 280 L77 280 L78 280 L79 280 L80 280 L81 280 L82 280 L83 280 L84 280 L85 280 L86 280 L87 280 L88 280 L89 280 L90 280 L91 280 L92 280 L93 280 L94 280 L95 280 L96 280 L97 280 L98 280 L99 280 L100 280 L101 280 L102 280 L103 280 L104 280 L105 280 L106 280 L107 280 L108 280 L109 280 L110 280 L111 280 L112 280 L113 280 L114 280 L115 280 L116 280 L117 280 L118 280 L119 280 L120 280 L121 280 L122 280 L123 280 L124 280 L125 280 L126 280 L127 280 L128 280 L129 280 L130 280 L131 280 L132 280 L133 280 L134 280 L135 280 L136 280 L137 280 L138 280 L139 280 L140 280 L141 280 L142 280 L143 280 L144 280 L145 280 L146 280 L147 280 L148 280 L149 280 L150 280 L151 280 L152 280 L153 280 L154 280 L155 280 L156 280 L157 280 L158 280 L159 280 L160 280 L161 280 L162 280 L163 280 L164 280 L165 280 L166 280 L167 280 L168 280 L169 280 L170 280 L171 280 L172 280 L173 280 L174 280 L175 280 L176 280 L177 280 L178 280 L179 280 L180 280 L181 280 L182 280 L183 280 L184 280 L185 280 L186 280 L187 280 L188 280 L189 280 L190 280 L191 280 L192 280 L193 280 L194 280 L195 280 L196 280 L197 280 L198 280 L199 280 L200 280 L201 280 L202 280 L203 280 L204 280 L205 280 L206 280 L207 280 L208 280 L209 280 L210 280 L211 280 L212 280 L213 280 L214 280 L215 280 L216 280 L217 280 L218 280 L219 280 L220 280 L221 280 L222 280 L223 280 L224 280 L225 280 L226 280 L227 280 L228 280 L229 280 L230 280 L231 280 L232 280 L233 280 L234 280 L235 280 L236 280 L237 280 L238 280 L239 280 L240 280 L241 280 L242 280 L243 280 L244 280 L245 280 L246 280 L247 280 L248 280 L249 280 L250 280 L251 280 L252 280 L253 280 L254 280 L255 280 L256 280 L257 280 L258 280 L259 280 L260 280 L261 280 L262 280 L263 280 L264 280 L265 280 L266 280 L267 280 L268 280 L269 280 L270 280 L271 280 L272 280 L273 280 L274 280 L275 280 L276 280 L277 280 L278 280 L279 280 L280 280 L281 280 L282 280 L283 280 L284 280 L285 280 L286 280 L287 280 L288 280 L289 280 L290 280 L291 280 L291 279 L291 278 L291 277 L291 276 L291 275 L291 274 L291 273 L291 272 L291 271 L291 270 L291 269 L291 268 L291 267 L291 266 L291 265 L291 264 L291 263 L291 262 L291 261 L291 260 L291 259 L291 258 L291 257 L291 256 L291 255 L291 254 L291 253 L291 252 L291 251 L291 250 L291 249 L291 248 L291 247 L291 246 L291 245 L291 244 L291 243 L291 242 L291 241 L291 240 L291 239 L291 238 L291 237 L291 236 L291 235 L291 234 L291 233 L291 232 L291 231 L291 230 L291 229 L291 228 L291 227 L291 226 L291 225 L291 224 L291 223 L291 222 L291 221 L291 220 L291 219 L291 218 L291 217 L291 216 L291 215 L291 214 L291 213 L291 212 L291 211 L291 210 L291 209 L291 208 L291 207 L291 206 L291 205 L291 204 L291 203 L291 202 L291 201 L291 200 L291 199 L291 198 L291 197 L291 196 L291 195 L291 194 L291 193 L291 192 L291 191 L291 190 L291 189 L291 188 L291 187 L291 186 L291 185 L291 184 L291 183 L291 182 L291 181 L291 180 L291 179 L291 178 L291 177 L291 176 L291 175 L291 174 L291 173 L291 172 L291 171 L291 170 L291 169 L291 168 L291 167 L291 166 L291 165 L291 164 L291 163 L291 162 L291 161 L291 160 L291 159 L291 158 L291 157 L291 156 L291 155 L291 154 L291 153 L291 152 L291 151 L291 150 L291 149 L291 148 L291 147 L291 146 L291 145 L291 144 L291 143 L291 142 L291 141 L291 140 L291 139 L291 138 L291 137 L291 136 L291 135 L291 134 L291 133 L291 132 L291 131 L291 130 L291 129 L291 128 L291 127 L291 126 L291 125 L291 124 L291 123 L291 122 L291 121 L291 120 L291 119 L291 118 L291 117 L291 116 L291 115 L291 114 L291 113 L291 112 L291 111 L291 110 L291 109 L291 108 L291 107 L291 106 L291 105 L291 104 L291 103 L291 102 L291 101 L291 100 L291 99 L291 98 L291 97 L291 96 L291 95 L291 94 L291 93 L291 92 L291 91 L291 90 L291 89 L291 88 L291 87 L291 86 L291 85 L291 84 L291 83 L291 82 L291 81 L291 80 L291 79 L291 78 L291 77 L291 76 L291 75 L291 74 L291 73 L291 72 L291 71 L291 70 L291 69 L291 68 L291 67 L291 66 L291 65 L291 64 L291 63 L291 62 L291 61 L291 60 L291 59 L291 58 L291 57 L291 56 L291 55 L291 54 L291 53 L291 52 L291 51 L291 50 L291 49 L291 48 L291 47 L291 46 L291 45 L291 44 L291 43 L291 42 L291 41 L291 40 L291 39 L291 38 L291 37 L291 36 L291 35 L291 34 L291 33 L291 32 L291 31 L291 30 L291 29 L291 28 L291 27 L291 26 L291 25 L291 24 L291 23 L291 22 L291 21 L291 20 L291 19 L291 18 L291 17 L291 16 L291 15 L291 14 L291 13 L291 12 L291 11 L291 10 L291 9 L291 8 L291 7 L291 6 L291 5 L291 4 L291 3 L291 2 L291 1 L291 0 L290 0 L289 0 L288 0 L287 0 L286 0 L285 0 L284 0 L283 0 L282 0 L281 0 L280 0 L279 0 L278 0 L277 0 L276 0 L276 1 L276 2 L276 3 L276 4 L275 5 L275 6 L274 7 L274 8 L273 9 L273 10 L272 11 L271 12 L271 13 L270 14 L269 15 L268 16 L267 17 L266 18 L266 19 L265 20 L264 21 L264 22 L263 23 L263 24 L262 25 L261 25 L260 25 L259 26 L258 27 L257 27 L256 27 L255 26 L254 25 L253 24 L252 23 L251 22 L251 21 L250 20 L249 19 L248 18 L248 17 L247 16 L247 15 L246 14 L246 13 L246 12 L245 11 L245 10 L244 9 L244 8 L243 7 L243 6 L242 5 L242 4 L242 3 L241 2 L241 1 L240 0 L239 0 L238 0 L237 0 L236 0 L235 0 L234 0 L233 0 L232 0 L231 0 L230 0 L229 0 L228 0 L227 0 L226 0 L225 0 L224 0 L223 0 L222 0 L221 0 L220 0 L219 0 L218 0 L217 0 L216 0 L215 0 L214 0 L213 0 L212 0 L211 0 L210 0 L209 0 L208 0 L207 0 L206 0 L205 0 L204 0 L203 0 L202 0 L201 0 L200 0 L199 0 L198 0 L197 0 L196 0 L195 0 L194 0 L193 0 L192 0 L191 0 L190 0 L189 0 L188 0 L187 0 L186 0 L185 0 L184 0 L183 0 L182 0 L181 0 L180 0 L179 0 L178 0 L177 0 L176 0 L175 0 L174 0 L173 0 L172 0 L171 0 L170 0 L169 0 L168 0 L167 0 L166 0 L165 0 L164 0 L163 0 L162 0 L161 0 L160 0 L159 0 L158 0 L157 0 L156 0 L155 0 L154 0 L153 0 L152 0 L151 0 L150 0 L149 0 L148 0 L147 0 L146 0 L145 0 L144 0 L143 0 L142 0 L141 0 L140 0 L139 0 L138 0 L137 0 L136 0 L135 0 L134 0 L133 0 L132 0 L131 0 L130 0 L129 0 L128 0 L127 0 L126 0 L125 0 L124 0 L123 0 L122 0 L121 0 L120 0 L119 0 L118 0 L117 0 L116 0 L115 0 L114 0 L113 0 L112 0 L111 0 L110 0 L109 0 L108 0 L107 0 L106 0 L105 0 L104 0 L103 0 L102 0 L101 0 L100 0 L99 0 L98 0 L97 0 L96 0 L95 0 L94 0 L93 0 L92 0 L91 0 L90 0 L89 0 L88 0 L87 0 L86 0 L85 0 L84 0 L83 0 L82 0 L81 0 L80 0 L79 0 L78 0 L77 0 L76 0 L75 0 L74 0 L73 0 L72 0 L71 0 L70 0 L69 0 L68 0 L67 0 L66 0 L65 0 L64 0 L63 0 L62 0 L61 0 L60 0 L59 0 L58 0 L57 0 L56 0 L55 0 L54 0 L53 0 L52 0 L51 0 L50 0 L49 0 L48 0 L47 0 L46 0 L45 0 L44 0 L43 0 L42 0 L41 0 L40 0 L39 0 L38 0 L37 0 L36 0 L35 0 L34 0 L33 0 L32 0 L31 0 L30 0 L29 0 L28 0 L27 0 L26 0 L25 0 L24 0 L23 0 L22 0 L21 0 L20 0 L19 0 L18 0 L17 0 L16 0 L15 0 L14 0 L13 0 L12 0 L11 0 L10 0 L9 0 L8 0 L7 0 L6 0 L5 0 L4 0 L3 0 L2 0 L1 0 Z" fill="#cccccc" stroke="black" stroke-width="1" />
</svg>
